<svg xmlns="http://www.w3.org/2000/svg" width="29.893" height="30" viewBox="0 0 61.156 61.375">
  <defs>
    <style>
      .cls-1 {
        fill: #2390ff;
        fill-rule: evenodd;
      }
    </style>
  </defs>
  <path id="salary" class="cls-1" d="M556.637,128.254h6.475a5.168,5.168,0,0,1,5.12,5.2v6.222a2.56,2.56,0,1,0,5.119,0V129.46c0-5.738-4.593-6.409-10.239-6.409h-6.475a2.55,2.55,0,0,0-2.565,2.33A2.985,2.985,0,0,0,556.637,128.254Zm-44.456,39.414v6.373a10.335,10.335,0,0,0,10.239,10.406h7.048a2.6,2.6,0,0,0,0-5.2H522.42a5.167,5.167,0,0,1-5.119-5.2v-6.373C517.75,163.448,512.181,161.93,512.181,167.668Zm29.346-14.992a11.338,11.338,0,1,1,11.443-11.338A11.4,11.4,0,0,1,541.527,152.676Zm0-19.317a7.979,7.979,0,1,0,8.052,7.979A8.025,8.025,0,0,0,541.527,133.359Zm1.441,22.676a15.523,15.523,0,0,1,5.08.849,1.676,1.676,0,0,1,1.043,2.139,1.7,1.7,0,0,1-2.159,1.033,12.105,12.105,0,0,0-3.964-.661h-2.542A11.994,11.994,0,0,0,528.39,171.32a1.7,1.7,0,0,1-3.39,0,15.373,15.373,0,0,1,15.426-15.285h2.542Zm14.471,3.692a2.507,2.507,0,0,0-1.8-1.22,14.919,14.919,0,0,0-3.1-.152c-0.479-.007-0.531-0.054-0.531-0.521s0-.911,0-1.366a0.41,0.41,0,0,1,.482-0.468q5.013,0,10.026,0a0.416,0.416,0,0,1,.489.47c0,0.354-.006.708,0,1.062a0.393,0.393,0,0,1-.471.443c-0.915,0-1.831,0-2.8,0a4.935,4.935,0,0,1,.751,1.616c0.038,0.167.187,0.137,0.313,0.137,0.516,0,1.033,0,1.549,0,0.549,0,.657.108,0.658,0.625q0,0.417,0,.834a0.47,0.47,0,0,1-.561.57c-0.555.01-1.11,0-1.665,0-0.119,0-.22-0.034-0.26.167a4.768,4.768,0,0,1-3.616,3.7,4.9,4.9,0,0,1-1.33.245c0.471,0.522.929,1.023,1.379,1.532,1,1.129,2.011,2.248,2.963,3.417,0.4,0.49.814,0.968,1.229,1.446a0.433,0.433,0,0,1,.119.511,0.417,0.417,0,0,1-.438.215c-0.723,0-1.445-.007-2.168,0a0.654,0.654,0,0,1-.523-0.264c-0.674-.773-1.342-1.551-2.016-2.323-0.692-.794-1.379-1.591-2.085-2.373-0.6-.661-1.217-1.3-1.823-1.952a0.715,0.715,0,0,1-.2-0.543c0.019-.455.008-0.91,0-1.366a0.317,0.317,0,0,1,.374-0.362,14.394,14.394,0,0,0,2.237-.083,3.377,3.377,0,0,0,2.794-1.458c0.031-.054.059-0.11,0.089-0.165,0.138-.25.128-0.362-0.227-0.358-1.523.018-3.045,0.008-4.568,0.007-0.586,0-.7-0.108-0.7-0.665v-0.721c0-.544.1-0.644,0.676-0.645q1.761,0,3.522,0h1.236Z" transform="translate(-512.188 -123.063)"/>
</svg>
