<svg xmlns="http://www.w3.org/2000/svg" width="24.001" height="24.001" viewBox="0 0 26 26">
  <defs>
    <style>
      .cls-1 {
        fill: #006ed7;
        fill-rule: evenodd;
      }
    </style>
  </defs>
  <path id="semYear" class="cls-1" d="M1528.05,476.048a3.257,3.257,0,0,1-2.3.952h-19.5a3.247,3.247,0,0,1-3.25-3.25V457.5a3.247,3.247,0,0,1,3.25-3.25h1.08a3.247,3.247,0,0,1,3.25-3.25,3.247,3.247,0,0,1,3.25,3.25h4.34a3.25,3.25,0,0,1,6.5,0h1.08a3.247,3.247,0,0,1,3.25,3.25v16.25A3.247,3.247,0,0,1,1528.05,476.048Zm-1.22-18.548a1.071,1.071,0,0,0-1.08-1.083h-2.17a1.078,1.078,0,0,1-.76-0.318,1.057,1.057,0,0,1-.32-0.766V454.25a1.058,1.058,0,0,0-.32-0.766,1.082,1.082,0,0,0-1.53,0,1.1,1.1,0,0,0-.32.766v2.167a1.1,1.1,0,0,0,.32.766,1.083,1.083,0,0,0,.77.317,1.077,1.077,0,0,1,.76.317,1.077,1.077,0,0,1,0,1.532,1.078,1.078,0,0,1-.76.318,3.247,3.247,0,0,1-3.25-3.25h-5.42a1.1,1.1,0,0,1-.77-0.318,1.088,1.088,0,0,1-.31-0.766V454.25a1.1,1.1,0,0,0-.32-0.766,1.082,1.082,0,0,0-1.53,0,1.058,1.058,0,0,0-.32.766v2.167a1.06,1.06,0,0,0,.32.766,1.077,1.077,0,0,0,.76.317,1.083,1.083,0,0,1,.77.317,1.077,1.077,0,0,1,0,1.532,1.084,1.084,0,0,1-.77.318,3.247,3.247,0,0,1-3.25-3.25h-1.08a1.071,1.071,0,0,0-1.08,1.083v4.333h21.66V457.5Z" transform="translate(-1503 -451)"/>
</svg>
