<svg xmlns="http://www.w3.org/2000/svg" width="29.997" height="30.104" viewBox="0 0 61.156 61.375">
  <defs>
    <style>
      .cls-1 {
        fill: #2390ff;
        fill-rule: evenodd;
      }
    </style>
  </defs>
  <path id="setting" class="cls-1" d="M386.788,158.423a17.26,17.26,0,0,1-1.965,4.558l5.818,5.618-6.481,6.256-5.819-5.618a18.557,18.557,0,0,1-4.644,1.877V179h-9.166v-7.842a18.554,18.554,0,0,1-4.8-1.916l-5.819,5.618-6.481-6.256,5.819-5.618a17.3,17.3,0,0,1-1.966-4.558h-8.293v-8.849h8.294a17.253,17.253,0,0,1,1.965-4.557l-5.819-5.618,6.482-6.256,5.818,5.618a18.582,18.582,0,0,1,4.8-1.916V129H373.7v7.882a18.572,18.572,0,0,1,4.644,1.877l5.819-5.618,6.481,6.256-5.819,5.618a17.253,17.253,0,0,1,1.965,4.557h8.22v8.849h-8.22Zm-17.751,4.423a8.854,8.854,0,1,0,0-17.7,9.331,9.331,0,0,0-5.287,1.628l-2.194,2.117a8.589,8.589,0,0,0-1.685,5.1A9.021,9.021,0,0,0,369.037,162.846Zm13.6-34.592h6.475a5.168,5.168,0,0,1,5.12,5.2v6.222a2.56,2.56,0,1,0,5.119,0V129.46c0-5.738-4.593-6.409-10.239-6.409h-6.475a2.55,2.55,0,0,0-2.565,2.33A2.985,2.985,0,0,0,382.637,128.254Zm-44.456,39.414v6.373a10.335,10.335,0,0,0,10.239,10.406h7.048a2.6,2.6,0,0,0,0-5.2H348.42a5.167,5.167,0,0,1-5.119-5.2v-6.373C343.75,163.448,338.181,161.93,338.181,167.668Z" transform="translate(-338.188 -123.063)"/>
</svg>
