<svg xmlns="http://www.w3.org/2000/svg" width="30" height="30" viewBox="0 0 30 30">
  <defs>
    <style>
      .cls-1 {
        fill: #0073e0;
        fill-rule: evenodd;
      }
    </style>
  </defs>
  <path id="mother" class="cls-1" d="M1590.73,523.769c-0.53-.2-1.06-0.4-1.66-0.626a3.721,3.721,0,0,0,1.62-2.419,1.184,1.184,0,0,0-.19-1.378,4.542,4.542,0,0,1-1.28-4.719,2.251,2.251,0,0,0,.14-1.676,7.073,7.073,0,0,1-.38-2.34,7.184,7.184,0,0,0-2.02-4.947,7.79,7.79,0,0,0-7.17-2.56,7.657,7.657,0,0,0-4.15,1.957,7.785,7.785,0,0,0-2.65,6.319,1.918,1.918,0,0,1-.17.937,2.7,2.7,0,0,0-.06,2.276,4.433,4.433,0,0,1-1.29,4.755,0.526,0.526,0,0,0-.22.483,3.874,3.874,0,0,0,1.64,3.325c-0.55.211-1.06,0.429-1.59,0.608a4.729,4.729,0,0,0-3.3,4.747c0.01,0.351.06,0.488,0.46,0.488q12.555-.021,25.11,0c0.3,0,.42-0.045.43-0.4A4.742,4.742,0,0,0,1590.73,523.769Zm-1.62-3.021a2.7,2.7,0,0,1-2.1,1.617,10.635,10.635,0,0,0-1.34-.479,1.194,1.194,0,0,1-.82-1.073,3.681,3.681,0,0,0-.17-0.594,0.524,0.524,0,0,1,.15-0.7,4.872,4.872,0,0,0,1.26-2.5,0.656,0.656,0,0,1,.68-0.6c0.76-.16.78,0.246,0.85,0.772a4.535,4.535,0,0,0,1.31,2.7A0.7,0.7,0,0,1,1589.11,520.748Zm-3.87,2.511a7.906,7.906,0,0,1-8.39.107,0.222,0.222,0,0,1,.06-0.075,1.952,1.952,0,0,0,1.65-1.9c0.07-.481.27-0.613,0.75-0.41a4.3,4.3,0,0,0,3.44-.015c0.45-.185.59-0.046,0.67,0.319C1583.62,522.277,1583.84,523.25,1585.24,523.259Zm-10.61-13.491a6.469,6.469,0,0,1,4.72-5.028,5.858,5.858,0,0,1,1.69-.236,6.51,6.51,0,0,1,6.34,5.4c0.03,0.151.08,0.3,0.11,0.446,0.04,0.207-.02.351-0.27,0.3a19.383,19.383,0,0,0-3.39-.109,5.657,5.657,0,0,1-4.13-1.754,1.517,1.517,0,0,0-1.84-.395,2.95,2.95,0,0,0-1.91,1.824,0.387,0.387,0,0,1-.47.323,0.635,0.635,0,0,1-.17,0c-0.28-.107-0.57.336-0.79,0.014A1.1,1.1,0,0,1,1574.63,509.768Zm-0.52,3.544a1.455,1.455,0,0,1,1.45-1.265,6.166,6.166,0,0,1,.99.007c0.58,0.079.85-.1,0.74-0.723a1.082,1.082,0,0,1,.24-0.863c0.58-.719.88-0.789,1.51-0.212a6.891,6.891,0,0,0,3.62,1.683,29.157,29.157,0,0,0,3.69.1,1.514,1.514,0,0,1,1.37.765,1.423,1.423,0,0,1-1.22,2.139,9.805,9.805,0,0,1-1.15-.007c-0.49-.048-0.7.064-0.65,0.614a3.932,3.932,0,0,1-.91,2.856,3.549,3.549,0,0,1-5.58.01,3.869,3.869,0,0,1-.91-2.8c0.04-.57-0.14-0.776-0.69-0.68a3.386,3.386,0,0,1-.52,0,3.809,3.809,0,0,1-1.03-.073A1.393,1.393,0,0,1,1574.11,513.312Zm-1.34,7.083a0.34,0.34,0,0,1,.13-0.3,5.525,5.525,0,0,0,1.59-3.436c0.04-.279.07-0.4,0.37-0.234a0.76,0.76,0,0,0,.39.029,0.552,0.552,0,0,1,.65.544,5.005,5.005,0,0,0,1.28,2.54,0.641,0.641,0,0,1,.16.652,2.108,2.108,0,0,1-1.89,2.006,2.022,2.022,0,0,0-.44.169A2.739,2.739,0,0,1,1572.77,520.4Zm16.36,7.09a0.293,0.293,0,0,1-.37-0.347c-0.04-1.1-.05-1.092-1.14-1.059a0.3,0.3,0,0,0-.37.351c-0.03,1.05-.04,1.05-1.09,1.05-3.61,0-7.22-.009-10.84.012-0.46,0-.63-0.087-0.6-0.587,0.05-.817.01-0.779-0.79-0.832-0.57-.037-0.82.107-0.7,0.7,0.11,0.564-.09.757-0.69,0.719-0.96-.06-1.92-0.016-2.91-0.016a3.113,3.113,0,0,1,1.92-2.179c1.03-.419,2.08-0.778,3.11-1.193a0.655,0.655,0,0,1,.71.129,9.526,9.526,0,0,0,11.19.046,0.8,0.8,0,0,1,.87-0.155c0.95,0.4,1.92.778,2.89,1.135a3.2,3.2,0,0,1,2.06,2.216C1591.25,527.479,1590.19,527.471,1589.13,527.485Z" transform="translate(-1566 -501)"/>
</svg>
