<svg xmlns="http://www.w3.org/2000/svg" width="30.069" height="29.6" viewBox="0 0 70.156 69.063">
  <defs>
    <style>
      .cls-1 {
        fill: #2390ff;
        fill-rule: evenodd;
      }
    </style>
  </defs>
  <path id="swipeable" class="cls-1" d="M777.949,142.624a2.7,2.7,0,1,1-2.64,2.7A2.669,2.669,0,0,1,777.949,142.624Zm-34.45,28.86a2.7,2.7,0,1,1,2.64-2.7A2.669,2.669,0,0,1,743.5,171.484Zm0-23.466a2.7,2.7,0,1,1,2.64-2.7A2.669,2.669,0,0,1,743.5,148.018Zm0,11.733a2.7,2.7,0,1,1,2.64-2.7A2.669,2.669,0,0,1,743.5,159.751Zm11.483,11.733a2.7,2.7,0,1,1,2.64-2.7A2.669,2.669,0,0,1,754.982,171.484Zm0-23.466a2.7,2.7,0,1,1,2.64-2.7A2.669,2.669,0,0,1,754.982,148.018ZM755.5,163a5.488,5.488,0,1,1,5.5-5.488A5.493,5.493,0,0,1,755.5,163Zm36.445-11.747a2.67,2.67,0,0,1-2.64-2.7V133.183a5.344,5.344,0,0,0-5.28-5.394h-3.431v2.7a2.641,2.641,0,1,1-5.28,0v-2.7H763.3v2.7a2.641,2.641,0,1,1-5.28,0v-2.7H746.139v2.7a2.641,2.641,0,1,1-5.28,0v-2.7h-3.3a5.344,5.344,0,0,0-5.279,5.394V175.26a5.344,5.344,0,0,0,5.279,5.394h20.2a2.7,2.7,0,0,1,0,5.4h-20.2A10.688,10.688,0,0,1,727,175.26V133.183a10.688,10.688,0,0,1,10.559-10.789h3.3v-2.7a2.641,2.641,0,1,1,5.28,0v2.7h11.879v-2.7a2.641,2.641,0,1,1,5.28,0v2.7h12.011v-2.7a2.641,2.641,0,1,1,5.28,0v2.7h3.431a10.688,10.688,0,0,1,10.56,10.789v15.374A2.67,2.67,0,0,1,791.94,151.255Zm-25.475-8.631a2.7,2.7,0,1,1-2.639,2.7A2.669,2.669,0,0,1,766.465,142.624ZM755.5,154a3.5,3.5,0,1,1-3.5,3.5A3.5,3.5,0,0,1,755.5,154Zm0,2a1.5,1.5,0,1,1-1.5,1.5A1.5,1.5,0,0,1,755.5,156Zm39.233,15.626a0.711,0.711,0,0,0-.249-0.933,0.723,0.723,0,0,0-.955.158l-0.731.96-0.931,1.076a10.488,10.488,0,0,1-1.145,1.107l-0.739.636-0.886.621a8.773,8.773,0,0,1-1.2.735c-0.224.121-.449,0.244-0.67,0.375q-0.3.129-.6,0.264a11.421,11.421,0,0,1-1.61.623,12.932,12.932,0,0,1-1.759.471q-0.274.059-.546,0.122c-0.189.022-.378,0.046-0.564,0.07a13.221,13.221,0,0,1-1.854.148,10.8,10.8,0,0,1-1.6-.042c-0.221-.017-0.44-0.033-0.655-0.045-0.254-.047-0.506-0.086-0.753-0.123a8.488,8.488,0,0,1-1.328-.275l-0.95-.252-0.886-.331a8.342,8.342,0,0,1-1.2-.522l-0.687-.331-0.092-.056,1.637-2.836a0.7,0.7,0,0,0-.059-0.783,0.73,0.73,0,0,0-.754-0.26l-8.367,2.142a0.692,0.692,0,0,0-.5.86l2.329,8.317a0.727,0.727,0,0,0,.337.431,0.753,0.753,0,0,0,.265.092,0.7,0.7,0,0,0,.708-0.341l1.711-2.963,1.263,0.455a14.557,14.557,0,0,0,2.091.581l0.875,0.183,1.511,0.2a12.8,12.8,0,0,0,1.9.1c0.268,0,.539,0,0.811.01a0.665,0.665,0,0,0,.089,0c0.228-.021.458-0.038,0.689-0.055a14.563,14.563,0,0,0,2.1-.257,16.9,16.9,0,0,0,2.3-.54l0.536-.152,0.069-.023,0.521-.2a16.364,16.364,0,0,0,2.079-.905,14.189,14.189,0,0,0,1.795-1.029c0.193-.125.385-0.248,0.576-0.365a0.836,0.836,0,0,0,.075-0.053c0.208-.17.419-0.33,0.627-0.489a10.91,10.91,0,0,0,1.316-1.114l0.863-.832,0.669-.782a11.862,11.862,0,0,0,1.11-1.458l0.518-.759Zm-28.039-5.556a0.708,0.708,0,0,0,.244.93,0.718,0.718,0,0,0,.949-0.16l0.731-.961,0.929-1.078a10.346,10.346,0,0,1,1.141-1.108l0.737-.638,0.882-.623a9.038,9.038,0,0,1,1.195-.738c0.223-.121.448-0.245,0.668-0.376q0.3-.129.6-0.266a11.447,11.447,0,0,1,1.6-.627,12.655,12.655,0,0,1,1.75-.476c0.182-.041.363-0.081,0.543-0.124,0.188-.023.375-0.048,0.56-0.072a12.931,12.931,0,0,1,1.843-.154,10.664,10.664,0,0,1,1.587.035c0.219,0.016.437,0.031,0.651,0.042,0.252,0.047.5,0.084,0.747,0.121a8.26,8.26,0,0,1,1.319.27l0.943,0.247,0.879,0.327a8.33,8.33,0,0,1,1.187.517l0.681,0.328,0.091,0.055-1.637,2.836a0.7,0.7,0,0,0,.056.782,0.72,0.72,0,0,0,.748.256l8.322-2.168a0.7,0.7,0,0,0,.429-0.325,0.7,0.7,0,0,0,.068-0.535l-2.284-8.291a0.719,0.719,0,0,0-.333-0.429,0.727,0.727,0,0,0-.263-0.09,0.7,0.7,0,0,0-.705.342l-1.711,2.964-1.254-.45a14.354,14.354,0,0,0-2.075-.573l-0.869-.179-1.5-.194a12.6,12.6,0,0,0-1.889-.1c-0.266,0-.535,0-0.8-0.007a0.662,0.662,0,0,0-.089,0c-0.227.021-.455,0.039-0.685,0.057a14.552,14.552,0,0,0-2.088.264,16.734,16.734,0,0,0-2.287.548l-0.533.153c-0.023.007-.045,0.014-0.069,0.023l-0.518.2a16.167,16.167,0,0,0-2.069.911,14.179,14.179,0,0,0-1.788,1.033c-0.192.125-.383,0.248-0.574,0.367a0.553,0.553,0,0,0-.074.053c-0.208.17-.418,0.331-0.625,0.489a11.153,11.153,0,0,0-1.312,1.117l-0.86.833-0.668.784a11.831,11.831,0,0,0-1.108,1.458l-0.517.76Z" transform="translate(-727 -117)"/>
</svg>
