<svg xmlns="http://www.w3.org/2000/svg" width="24.006" height="24.006" viewBox="0 0 248 248">
  <defs>
    <style>
      .cls-1 {
        fill: #bfbfbf;
        fill-rule: evenodd;
      }
    </style>
  </defs>
  <path id="Shape_425_1" data-name="Shape 425 1" class="cls-1" d="M341.172,451C272.081,451.314,217,397.36,217,326.949c0-69.523,54.093-123.857,123.736-123.94,69.027-.082,122.418,53.64,124.265,123.776C463.553,395.406,411.724,450.674,341.172,451Zm5.971-232.842c-66.938-3.284-112.585,49.829-115.054,102.651-3.123,66.845,49.775,112.535,102.671,115.116,66.305,3.235,115.727-51.135,114.746-108.545C450.163,266.791,401.166,220.805,347.143,218.155ZM374.713,371.5c-12.545-12.56-24.982-25.233-37.717-37.6a12.345,12.345,0,0,1-4.03-10.1c0.248-11.283.085-22.575,0.085-33.864,0-12.028.107-24.058-.069-36.084-0.049-3.353.458-4.769,4.366-4.711,11.227,0.165,11.23-.046,11.23,11.087,0,19.616.121,39.233-.1,58.847a11.376,11.376,0,0,0,3.865,9.055c12.407,12.173,24.548,24.617,36.983,36.76,2.636,2.574,2.566,3.919-.023,6.437C381.814,378.61,381.936,378.734,374.713,371.5Z" transform="translate(-217 -203)"/>
</svg>
