<svg xmlns="http://www.w3.org/2000/svg" width="24" height="23.999" viewBox="0 0 67.002 67">
  <defs>
    <style>
      .cls-1 {
        fill: #0096ff;
        fill-rule: evenodd;
      }
    </style>
  </defs>
  <path id="trash" class="cls-1" d="M840.707,304.8H797.293A1.3,1.3,0,0,1,796,303.491V300.5a3.9,3.9,0,0,1,3.879-3.926h7.089V296.2a7.162,7.162,0,0,1,7.111-7.2h9.842a7.162,7.162,0,0,1,7.111,7.2v0.376h7.089A3.9,3.9,0,0,1,842,300.5v2.992A1.3,1.3,0,0,1,840.707,304.8Zm-13.554-8.6a3.255,3.255,0,0,0-3.232-3.271h-9.842a3.255,3.255,0,0,0-3.233,3.271v0.376h16.307V296.2Zm10.039,57.977A1.949,1.949,0,0,1,835.258,356H802.743a1.95,1.95,0,0,1-1.935-1.826l-3.134-45.448h42.651Zm-25.305-37.646a1.939,1.939,0,1,0-3.875.167l1.293,30.752a1.95,1.95,0,0,0,1.936,1.879c0.028,0,.056,0,0.084,0a1.953,1.953,0,0,0,1.855-2.044Zm9.052,0.083a1.939,1.939,0,1,0-3.878,0v30.752a1.939,1.939,0,1,0,3.878,0V316.611Zm7.194-1.961a1.95,1.95,0,0,0-2.02,1.878L824.82,347.28a1.954,1.954,0,0,0,1.855,2.045h0.084a1.949,1.949,0,0,0,1.936-1.879l1.293-30.752A1.953,1.953,0,0,0,828.133,314.65Z" transform="translate(-785.499 -289)"/>
</svg>
