<svg xmlns="http://www.w3.org/2000/svg" viewBox="0 0 18.87 22.16"><g id="Layer_2" data-name="Layer 2"><g id="Layer_1-2" data-name="Layer 1"><path d="M18.6,21.89a1,1,0,0,1-.67.27H.94a.94.94,0,0,1-.66-.27A.92.92,0,0,1,0,21.23v-.91a6.31,6.31,0,0,1,1.39-3.94A6.53,6.53,0,0,1,5,14.1a1,1,0,0,0,.51-.32.85.85,0,0,0,.2-.55V12.3l-1-1A2.6,2.6,0,0,1,4,10.38a2.57,2.57,0,0,1-.21-1.06V5.5a5.49,5.49,0,0,1,1.6-3.81A5.75,5.75,0,0,1,9.23,0a6.16,6.16,0,0,1,2.25.43,6,6,0,0,1,1.9,1.24,5.75,5.75,0,0,1,1.27,1.86,5.54,5.54,0,0,1,.45,2.19v3.6a2.81,2.81,0,0,1-.22,1.07,2.91,2.91,0,0,1-.62.89l-1,1v.93a.91.91,0,0,0,.21.55.89.89,0,0,0,.5.32,6.56,6.56,0,0,1,3.57,2.28,6.36,6.36,0,0,1,1.38,3.94v.91A.91.91,0,0,1,18.6,21.89ZM16,17.51a4.69,4.69,0,0,0-2.54-1.62,2.87,2.87,0,0,1-1.53-1,2.76,2.76,0,0,1-.59-1.69V11.92a.91.91,0,0,1,.27-.66L12.93,10a.86.86,0,0,0,.21-.29.84.84,0,0,0,.07-.35V5.72A3.82,3.82,0,0,0,12.07,3,4,4,0,0,0,9.3,1.85,3.73,3.73,0,0,0,6.74,3,3.63,3.63,0,0,0,5.66,5.5V9.32a.94.94,0,0,0,.07.34,1,1,0,0,0,.2.29l1.34,1.31a.92.92,0,0,1,.28.66v1.31A2.66,2.66,0,0,1,7,14.91a2.76,2.76,0,0,1-1.53,1,4.73,4.73,0,0,0-2.54,1.62,4.47,4.47,0,0,0-1,2.8H17A4.54,4.54,0,0,0,16,17.51Z" style="fill:#366fb7;fill-rule:evenodd"/></g></g></svg>