<svg xmlns="http://www.w3.org/2000/svg" width="21.031" height="21" viewBox="0 0 21.031 21">
  <defs>
    <style>
      .cls-1 {
        fill: #0073df;
        fill-rule: evenodd;
      }
    </style>
  </defs>
  <path id="Shape_454_1" data-name="Shape 454 1" class="cls-1" d="M812.438,422.536v6.618A1.848,1.848,0,0,1,810.592,431H799.846A1.848,1.848,0,0,1,798,429.154V414.307a1.848,1.848,0,0,1,1.846-1.846h1.788a1.851,1.851,0,0,1,1.413-.817,2.257,2.257,0,0,1,4.344,0,1.847,1.847,0,0,1,1.412.817h1.789a1.848,1.848,0,0,1,1.846,1.846v3.008l3.412-3.411a1.846,1.846,0,0,1,2.61,2.61Zm-4.553-9.05a0.616,0.616,0,0,0-.615-0.615h-0.41a0.615,0.615,0,0,1-.616-0.615,1.026,1.026,0,1,0-2.051,0,0.615,0.615,0,0,1-.615.615h-0.41a0.616,0.616,0,0,0-.615.615v0.2h5.332v-0.2Zm3.322,0.821a0.616,0.616,0,0,0-.615-0.616h-1.477v0.616a0.615,0.615,0,0,1-.615.615h-6.562a0.616,0.616,0,0,1-.616-0.615v-0.616h-1.476a0.616,0.616,0,0,0-.616.616v14.847a0.616,0.616,0,0,0,.616.615h10.746a0.616,0.616,0,0,0,.615-0.615v-5.388l-0.868.869a0.651,0.651,0,0,1-.16.115l-3.48,1.74a0.615,0.615,0,0,1-.826-0.825l1.74-3.481a0.63,0.63,0,0,1,.116-0.16l3.478-3.478v-4.239Zm-2.342,9.724-0.533-.533-0.533,1.066Zm0.169-1.571,0.87,0.87,4.64-4.641-0.87-.87Zm6.381-6.381-0.871.87,0.871,0.87,0.87-.87Zm2.175-1.305a0.616,0.616,0,0,0-.87,0l-0.435.435,0.87,0.87,0.435-.435A0.616,0.616,0,0,0,817.59,414.774Zm-14.936,8.868a0.616,0.616,0,0,1-.87,0l-1.16-1.16a0.615,0.615,0,1,1,.87-0.87l0.725,0.725,1.885-1.885a0.615,0.615,0,0,1,.87.87Zm0-4.037a0.616,0.616,0,0,1-.87,0l-1.16-1.16a0.615,0.615,0,1,1,.87-0.87l0.725,0.725,1.885-1.886a0.616,0.616,0,0,1,.87.871Z" transform="translate(-798 -410)"/>
</svg>
